# xmcd
#
# Track frame offsets:
#	150
#	19473
#	36658
#	54029
#	71592
#	90405
#	111955
#	142270
#	162811
#	189786
#	213003
#	231369
#	257083
#	279940
#	297689
#	317761
#	337042
#
# Disc length: 4732 seconds
#
# Revision: 0
# Processed by: cddbd v1.5.2PL0 Copyright (c) Steve Scherf et al.
# Submitted via: dBpowerAMP V4.0
#
DISCID=00127a11
DTITLE= -
DYEAR=2003
DGENRE=Acid
TTITLE0=hj
TTITLE1=bnm
TTITLE2=hkl
TTITLE3=jk
TTITLE4=hjk
TTITLE5=sad
TTITLE6=vbn
TTITLE7=yui
TTITLE8=pljh
TTITLE9=cdfv
TTITLE10=gfds
TTITLE11=gf
TTITLE12=ждлор
TTITLE13=[p
TTITLE14=вап
TTITLE15=тима
TTITLE16=ек
EXTD=
EXTT0=
EXTT1=
EXTT2=
EXTT3=
EXTT4=
EXTT5=
EXTT6=
EXTT7=
EXTT8=
EXTT9=
EXTT10=
EXTT11=
EXTT12=
EXTT13=
EXTT14=
EXTT15=
EXTT16=
PLAYORDER=
